PathFileType	3	(X/Y/Z)	F:\ViconData\AntennenMessung\Messung1\Session1\ID18.trc
DataRate	CameraRate	NumFrames	NumMarkers	Units	OrigDataRate	OrigDataStartFrame	OrigNumFrames
120.0	120.0	4	70	mm	120.0	1	1020	
Frame#	Time	Ashort			Along			Atop			A4			Bshort			Blong			Btop			B4			Cshort			Clong			Ctop			C4			Dshort			Dlong			Dtop			D4			Eshort			Elong			Etop			E4			Fshort			Flong			Ftop			F4			Gshort			Glong			Gtop			G4			Hshort			Hlong			Htop			H4			I1			I2			I3			I4			I5			WandAshort			WandAlong			WandAtop			WandA4			WandA15			WandBshort			WandB4			WandB5			WandBtop			WandBlong			WandCshort			WandClong			WandCtop			WandC4			WandC5			Acenter			Aantenna			Bcenter			Bantenna			Ccenter			Cantenna			Dcenter			Dantenna			Ecenter			Eantenna			Fcenter			Fantenna			Gcenter			Gantenna			Hcenter			Hantenna			Icenter			Iantenna			
		X1	Y1	Z1	X2	Y2	Z2	X3	Y3	Z3	X4	Y4	Z4	X5	Y5	Z5	X6	Y6	Z6	X7	Y7	Z7	X8	Y8	Z8	X9	Y9	Z9	X10	Y10	Z10	X11	Y11	Z11	X12	Y12	Z12	X13	Y13	Z13	X14	Y14	Z14	X15	Y15	Z15	X16	Y16	Z16	X17	Y17	Z17	X18	Y18	Z18	X19	Y19	Z19	X20	Y20	Z20	X21	Y21	Z21	X22	Y22	Z22	X23	Y23	Z23	X24	Y24	Z24	X25	Y25	Z25	X26	Y26	Z26	X27	Y27	Z27	X28	Y28	Z28	X29	Y29	Z29	X30	Y30	Z30	X31	Y31	Z31	X32	Y32	Z32	X33	Y33	Z33	X34	Y34	Z34	X35	Y35	Z35	X36	Y36	Z36	X37	Y37	Z37	X38	Y38	Z38	X39	Y39	Z39	X40	Y40	Z40	X41	Y41	Z41	X42	Y42	Z42	X43	Y43	Z43	X44	Y44	Z44	X45	Y45	Z45	X46	Y46	Z46	X47	Y47	Z47	X48	Y48	Z48	X49	Y49	Z49	X50	Y50	Z50	X51	Y51	Z51	X52	Y52	Z52	X53	Y53	Z53	X54	Y54	Z54	X55	Y55	Z55	X56	Y56	Z56	X57	Y57	Z57	X58	Y58	Z58	X59	Y59	Z59	X60	Y60	Z60	X61	Y61	Z61	X62	Y62	Z62	X63	Y63	Z63	X64	Y64	Z64	X65	Y65	Z65	X66	Y66	Z66	X67	Y67	Z67	X68	Y68	Z68	X69	Y69	Z69	X70	Y70	Z70	
1	0	-1038.1979	214.43759	-1644.2642	-1109.4102	204.08266	-1599.3328	-1063.6232	173.15044	-1625.9315	-1054.1716	262.13281	-1634.9635	-1353.0619	234.91193	1003.7468	-1281.4656	227.11496	1052.5242	-1322.7971	193.86064	1020.9414	-1284.7174	287.88702	1052.7507	813.88324	187.72008	1209.4796	892.11383	178.42296	1179.3606	844.23175	145.55444	1198.2848	860.55859	292.63989	1167.5103	1115.7635	209.5295	-1401.5739	1056.1803	194.06438	-1460.3654	1095.0824	162.31197	-1423.9342	1069.7996	238.68201	-1425.9679	-1204.5359	1685.8837	-1563.2693	-1129.1271	1688.2568	-1606.0383	-1173.1936	1724.4515	-1581.97	-1134.0408	1580.921	-1603.8285	-1239.7502	1699.3359	1119.549	-1308.9554	1698.1605	1071.7123	-1270.4452	1736.3383	1096.8842	-1245.4968	1592.7588	1110.7216	988.95532	1664.2096	1162.2408	955.49536	1701.0671	1182.259	922.64362	1661.963	1215.0847	939.7536	1659.4058	1159.9319	999.02307	1668.4081	-1579.4437	1058.9003	1670.1761	-1518.7051	1024.9329	1707.963	-1551.1615	1059.1925	1672.123	-1585.4872	-261.33594	164.26917	-221.71967	-346.71326	172.84514	-224.63109	-303.31528	128.76611	-221.97882	-299.57391	169.40982	-191.54837	-298.02722	166.34093	-270.18228																																														-1068.4929	210.03241	-1625.1495	-1073.5967	248.68831	-1624.3301	-1321.592	231.4848	1025.1865	-1320.3513	270.21927	1029.5573	848.01196	183.66411	1196.3398	851.85675	222.42369	1194.3619	1088.8156	202.53502	-1428.1637	1082.844	240.86382	-1432.194	-1171.9028	1686.9106	-1581.7773	-1170.5627	1647.9341	-1581.5775	-1270.6909	1698.8103	1098.1617	-1270.9462	1659.8336	1099.4886	951.83356	1705.1006	1184.4498	970.67303	1732.942	1164.6777	1026.4965	1669.2192	-1551.5751	1028.0687	1630.2531	-1551.9908	-299.33035	168.08562	-223.01527	-295.39935	206.87352	-224.03773
2	0.0083333333	-1038.2184	214.43965	-1644.249	-1109.4022	204.07736	-1599.3326	-1063.6201	173.16222	-1625.9188	-1054.1865	262.12436	-1634.9598	-1353.047	234.91386	1003.7281	-1281.4955	227.14726	1052.5216	-1322.8447	193.8374	1020.9608	-1284.7313	287.88791	1052.759	813.87646	187.814	1209.5366	892.29718	178.34979	1179.4309	844.55841	145.38464	1198.2084	860.77875	292.55325	1167.8967	1115.7466	209.5038	-1401.5844	1056.0616	193.92584	-1460.3271	1095.0396	162.28831	-1423.9895	1069.8536	238.73656	-1425.9248	-1204.5381	1685.877	-1563.2609	-1129.125	1688.2393	-1606.0023	-1173.1937	1724.438	-1581.9633	-1134.0389	1580.9243	-1603.8337	-1239.7281	1699.3103	1119.5413	-1309.1719	1698.4502	1071.8044	-1270.4722	1736.3635	1096.8912	-1245.4042	1592.5952	1110.668	988.85486	1664.1414	1162.2557	955.86432	1702.3981	1181.0859	922.62128	1662.0139	1215.0986	939.73792	1659.4091	1159.9657	999.02954	1668.424	-1579.4299	1058.9098	1670.1833	-1518.7057	1024.9418	1707.9624	-1551.1578	1059.1925	1672.1359	-1585.4867	-261.33646	164.27379	-221.70441	-346.58902	172.98857	-224.5831	-303.27191	128.73149	-221.93886	-299.54846	169.43002	-191.52657	-297.85477	166.34843	-270.0788																																														-1068.4977	210.03185	-1625.1431	-1073.6113	248.68658	-1624.3297	-1321.6196	231.50256	1025.1594	-1320.3595	270.24225	1029.4779	848.43182	183.64366	1196.2709	852.35529	222.39615	1194.3083	1088.7031	202.44539	-1428.2007	1082.657	240.76373	-1432.2191	-1171.9015	1686.8992	-1581.7582	-1170.5598	1647.9229	-1581.5452	-1270.865	1698.9246	1098.1371	-1271.2738	1659.9482	1099.4342	953.68262	1704.9279	1182.3312	973.13007	1731.7961	1161.8157	1026.5	1669.2311	-1551.5721	1028.0677	1630.2648	-1551.9893	-299.20767	168.1451	-222.98318	-295.20865	206.92592	-224.01074
3	0.016666667	-1038.2045	214.43845	-1644.2463	-1109.3999	204.08311	-1599.3264	-1063.6165	173.16956	-1625.906	-1054.1711	262.13223	-1634.9834	-1353.0037	234.88686	1003.7363	-1281.491	227.1707	1052.5001	-1322.8165	193.84882	1020.9451	-1284.7413	287.86978	1052.7571	813.91779	187.7449	1209.4554	892.37921	178.50786	1179.2889	844.29059	145.6953	1198.2151	860.82428	292.59232	1168.2941	1115.7981	209.90265	-1401.817	1056.1757	194.07358	-1460.3958	1095.0527	162.31174	-1423.9719	1069.8259	238.65196	-1425.9559	-1204.5238	1685.8727	-1563.2739	-1129.1392	1688.2494	-1606.0176	-1173.1908	1724.4403	-1581.9657	-1134.0541	1580.9417	-1603.8358	-1239.7435	1699.3405	1119.5546	-1309.1692	1698.4329	1071.7928	-1270.4457	1736.3329	1096.8904	-1245.4504	1592.665	1110.6847	988.86523	1664.149	1162.2737	957.41174	1700.1781	1183.8749	922.66943	1661.9749	1215.1022	939.70837	1659.3997	1159.9509	999.0163	1668.3883	-1579.4268	1058.723	1669.9146	-1518.7336	1024.9325	1707.9518	-1551.1531	1059.1819	1672.1309	-1585.4905	-261.33173	164.2554	-221.6881	-346.71222	172.87077	-224.6232	-303.38327	128.71118	-221.96753	-299.59256	169.42844	-191.53108	-297.9606	166.27861	-270.17584																																														-1068.4926	210.03305	-1625.1362	-1073.6057	248.68799	-1624.3293	-1321.6145	231.5	1025.1401	-1320.3778	270.24066	1029.4567	848.04486	183.7272	1196.3344	851.87146	222.49165	1194.4175	1088.709	202.71078	-1428.4318	1082.6949	241.01161	-1432.6602	-1171.8979	1686.9012	-1581.7729	-1170.5557	1647.9248	-1581.5728	-1270.8341	1698.934	1098.1655	-1271.2389	1659.9587	1099.4945	952.94751	1705.2919	1186.9407	972.66608	1733.5021	1168.6005	1026.3856	1669.0879	-1551.6051	1027.8428	1630.1178	-1552.0585	-299.37393	168.09406	-222.99585	-295.42535	206.88043	-224.00861
4	0.025	-1038.2053	214.4245	-1644.241	-1109.3937	204.07866	-1599.3209	-1063.6425	173.14595	-1625.9119	-1054.1689	262.15906	-1634.9808	-1353.0125	234.91454	1003.7333	-1281.4819	227.09053	1052.5468	-1322.8765	193.7888	1020.995	-1284.7537	287.771	1052.8131	813.90723	187.77072	1209.5018	892.05487	178.46017	1179.3428	844.23853	145.59833	1198.2559	860.72778	292.59631	1168.1067	1115.8091	209.9081	-1401.823	1056.1888	194.04865	-1460.3901	1095.038	162.30658	-1423.983	1069.828	238.68033	-1425.9497	-1204.6285	1685.9869	-1563.0277	-1129.1404	1688.2357	-1606.012	-1173.194	1724.4532	-1581.9722	-1134.0458	1580.9241	-1603.8253	-1239.7582	1699.3441	1119.5532	-1309.1376	1698.3835	1071.7742	-1270.4659	1736.3676	1096.9044	-1245.4327	1592.6488	1110.676	988.95581	1664.2375	1162.2582	955.8197	1702.326	1181.0127	922.57056	1662.0366	1215.0918	939.72919	1659.4158	1159.9104	999.01453	1668.4081	-1579.4341	1058.7053	1669.9053	-1518.7231	1024.9264	1707.9608	-1551.1541	1059.1903	1672.1409	-1585.4924	-261.55023	164.51216	-221.5869	-346.70523	172.85144	-224.63397	-303.19659	129.08891	-221.79391	-299.57294	169.43605	-191.57251	-298.01624	166.35466	-270.19238																																														-1068.5037	210.02122	-1625.1226	-1073.5996	248.67799	-1624.2953	-1321.6018	231.47884	1025.1683	-1320.2916	270.22003	1029.458	848.03558	183.70465	1196.3308	851.89764	222.46352	1194.3728	1088.6926	202.6949	-1428.4603	1082.6757	240.99333	-1432.7062	-1171.9011	1686.9619	-1581.6632	-1170.5573	1647.9865	-1581.3422	-1270.8156	1698.9142	1098.1649	-1271.1794	1659.9379	1099.4769	953.46252	1705.0354	1182.3468	972.81555	1731.973	1161.8329	1026.3682	1669.0941	-1551.6128	1027.8137	1630.1237	-1552.073	-299.32434	168.2114	-222.93855	-295.48459	207.00533	-224.07358
